# xmcd
#
# Track frame offsets:
#	150
#	10934
#	24478
#	40791
#	56215
#	71716
#	86791
#	102062
#	118195
#	133273
#	148948
#	161424
#	172946
#	184621
#	200794
#	222760
#	236279
#	249028
#	262821
#	277570
#
# Disc length: 3863 seconds
#
# Revision: 1
# Processed by: cddbd v1.5.2PL0 Copyright (c) Steve Scherf et al.
# Submitted via: audiograbber 1.83.01
#
DISCID=120f1514
DTITLE=Tom Astor - Seine grössten Hits
DYEAR=2011
DGENRE=Country
TTITLE0=Hallo, guten Abend Deutschland
TTITLE1=Strohblumen (Sunflower)
TTITLE2=Junger Adler
TTITLE3=Jenseits der Zeit (mit Michael Hirte)
TTITLE4=Ich geh' gern vergessene Straßen
TTITLE5=Oh, Susanna
TTITLE6=Mein Eldorado
TTITLE7=Wenn du zwei Arme brauchst, die dich umarmen
TTITLE8=I need more of you (mit The Bellamy Brothers)
TTITLE9=Du bist der positivste Schock in meinem Leben
TTITLE10=Hab' ich heut' schon gelebt
TTITLE11=Ja, ihr könnt mich alle mal (unterstützen)
TTITLE12=Steh' immer wieder auf
TTITLE13=Wenn man kämpft, kann man verlier'n
TTITLE14=Trucker Medley
TTITLE15=Wenn es kein Morgen gibt
TTITLE16=Wir werden nicht älter, wir werden nur noch besser
TTITLE17=Boarding Time
TTITLE18=Freunde für's Leben
TTITLE19=Hallo, guten Morgen Deutschland
EXTD=
EXTT0=
EXTT1=
EXTT2=
EXTT3=
EXTT4=
EXTT5=
EXTT6=
EXTT7=
EXTT8=
EXTT9=
EXTT10=
EXTT11=
EXTT12=
EXTT13=
EXTT14=
EXTT15=
EXTT16=
EXTT17=
EXTT18=
EXTT19=
PLAYORDER=
